<?xml version="1.0" encoding="UTF-8" standalone="no"?>
<!-- Created with Inkscape (http://www.inkscape.org/) -->

<svg
   width="219.21361mm"
   height="45.436275mm"
   viewBox="0 0 219.21361 45.436275"
   version="1.1"
   id="svg5"
   inkscape:version="1.1.1 (3bf5ae0d25, 2021-09-20)"
   sodipodi:docname="logo.svg"
   xmlns:inkscape="http://www.inkscape.org/namespaces/inkscape"
   xmlns:sodipodi="http://sodipodi.sourceforge.net/DTD/sodipodi-0.dtd"
   xmlns="http://www.w3.org/2000/svg"
   xmlns:svg="http://www.w3.org/2000/svg">
  <sodipodi:namedview
     id="namedview7"
     pagecolor="#ffffff"
     bordercolor="#666666"
     borderopacity="1.0"
     inkscape:pageshadow="2"
     inkscape:pageopacity="0.0"
     inkscape:pagecheckerboard="0"
     inkscape:document-units="mm"
     showgrid="false"
     showguides="true"
     inkscape:guide-bbox="true"
     inkscape:snap-smooth-nodes="true"
     inkscape:snap-intersection-paths="true"
     inkscape:snap-global="true"
     inkscape:snap-nodes="true"
     inkscape:snap-object-midpoints="true"
     inkscape:zoom="4"
     inkscape:cx="388.625"
     inkscape:cy="88.625"
     inkscape:window-width="1920"
     inkscape:window-height="1057"
     inkscape:window-x="-8"
     inkscape:window-y="-8"
     inkscape:window-maximized="1"
     inkscape:current-layer="layer1"
     fit-margin-top="0"
     fit-margin-left="0"
     fit-margin-right="0"
     fit-margin-bottom="0"
     inkscape:snap-page="true" />
  <defs
     id="defs2" />
  <g
     inkscape:label="Слой 1"
     inkscape:groupmode="layer"
     id="layer1"
     transform="translate(216.36581,-49.240429)">
    <g
       id="g34858"
       transform="matrix(6.4885935,0,0,6.4885935,-215.61573,-225.85981)"
       style="stroke-width:0.154116">
      <circle
         style="font-variation-settings:normal;vector-effect:none;fill:#000080;fill-opacity:1;stroke:none;stroke-width:0.00407768;stroke-linecap:butt;stroke-linejoin:miter;stroke-miterlimit:4;stroke-dasharray:none;stroke-dashoffset:0;stroke-opacity:1;-inkscape-stroke:none;stop-color:#000000"
         id="path33502"
         cx="15.315234"
         cy="46.346008"
         r="3.0539911" />
      <circle
         style="font-variation-settings:normal;vector-effect:none;fill:#000080;fill-opacity:1;stroke:none;stroke-width:0.00407768;stroke-linecap:butt;stroke-linejoin:miter;stroke-miterlimit:4;stroke-dasharray:none;stroke-dashoffset:0;stroke-opacity:1;-inkscape-stroke:none;stop-color:#000000"
         id="path33636"
         cx="18.369226"
         cy="43.292011"
         r="0.89449644" />
    </g>
    <g
       id="g34820"
       transform="matrix(6.4885935,0,0,6.4885935,-215.97863,-225.62455)"
       style="stroke-width:0.154116">
      <path
         d="m 7.9081638,47.404259 v -3.030304 h 0.4010088 v 2.672703 h 1.4924142 v 0.357601 z"
         style="font-size:4.23333px;line-height:1.25;font-family:arial;-inkscape-font-specification:arial;font-variation-settings:normal;opacity:1;vector-effect:none;fill:#000080;fill-opacity:1;stroke-width:0.0407766;stroke-linecap:butt;stroke-linejoin:miter;stroke-miterlimit:4;stroke-dasharray:none;stroke-dashoffset:0;stroke-opacity:1;-inkscape-stroke:none;stop-color:#000000;stop-opacity:1"
         id="path33116" />
      <path
         d="m 11.670205,47.404259 v -0.322461 q -0.256315,0.37207 -0.696598,0.37207 -0.194303,0 -0.363801,-0.07441 -0.167432,-0.07441 -0.250114,-0.186035 -0.08061,-0.113688 -0.113688,-0.276985 -0.02274,-0.109554 -0.02274,-0.347266 V 45.20905 h 0.37207 v 1.217495 q 0,0.291455 0.02274,0.392741 0.03514,0.146761 0.148828,0.23151 0.113688,0.08268 0.281119,0.08268 0.167432,0 0.314193,-0.08475 0.146761,-0.08682 0.206705,-0.233577 0.06201,-0.148828 0.06201,-0.429948 v -1.176154 h 0.37207 v 2.195213 z"
         style="font-size:4.23333px;line-height:1.25;font-family:arial;-inkscape-font-specification:arial;font-variation-settings:normal;opacity:1;vector-effect:none;fill:#000080;fill-opacity:1;stroke-width:0.0407766;stroke-linecap:butt;stroke-linejoin:miter;stroke-miterlimit:4;stroke-dasharray:none;stroke-dashoffset:0;stroke-opacity:1;-inkscape-stroke:none;stop-color:#000000;stop-opacity:1"
         id="path33118" />
    </g>
    <g
       id="g34810"
       transform="matrix(6.4885935,0,0,6.4885935,-215.97464,-225.62455)"
       style="fill:#ffffff;fill-opacity:1;stroke-width:0.154116">
      <path
         d="m 13.317946,48.24555 v -3.871595 h 0.820621 v 0.307992 h -0.448551 v 3.255612 h 0.448551 v 0.307991 z"
         style="font-size:4.23333px;line-height:1.25;font-family:arial;-inkscape-font-specification:arial;fill:#ffffff;fill-opacity:1;stroke-width:0.0407766"
         id="path33120" />
      <path
         d="m 15.918302,47.133474 q -0.206706,0.1757 -0.398942,0.248047 -0.190169,0.07235 -0.409277,0.07235 -0.361734,0 -0.556038,-0.1757 -0.194303,-0.177766 -0.194303,-0.452685 0,-0.16123 0.07235,-0.293522 0.07441,-0.134358 0.192236,-0.214973 0.119889,-0.08062 0.268717,-0.121957 0.109554,-0.02894 0.330729,-0.05581 0.450618,-0.05374 0.663525,-0.128158 0.0021,-0.07648 0.0021,-0.09715 0,-0.227376 -0.10542,-0.320394 -0.142626,-0.12609 -0.423746,-0.12609 -0.262516,0 -0.388606,0.09302 -0.124024,0.09095 -0.183968,0.324528 l -0.363802,-0.04961 q 0.04961,-0.233578 0.163297,-0.376205 0.113688,-0.144693 0.328662,-0.221174 0.214974,-0.07855 0.49816,-0.07855 0.28112,0 0.45682,0.06615 0.175699,0.06615 0.258382,0.167432 0.08268,0.09922 0.115755,0.25218 0.0186,0.09509 0.0186,0.343132 v 0.496093 q 0,0.518831 0.02274,0.657324 0.02481,0.136425 0.09508,0.262516 h -0.388606 q -0.05788,-0.115755 -0.07441,-0.270785 z m -0.03101,-0.830956 q -0.202571,0.08268 -0.607714,0.14056 -0.229443,0.03307 -0.324528,0.07441 -0.09508,0.04134 -0.146761,0.121956 -0.05168,0.07855 -0.05168,0.1757 0,0.148828 0.111621,0.248047 0.113688,0.09922 0.330729,0.09922 0.214973,0 0.382405,-0.09302 0.167431,-0.09508 0.24598,-0.258382 0.05994,-0.126091 0.05994,-0.37207 z"
         style="font-size:4.23333px;line-height:1.25;font-family:arial;-inkscape-font-specification:arial;fill:#ffffff;fill-opacity:1;stroke-width:0.0407766"
         id="path33122" />
      <path
         d="m 17.462392,48.24555 h -0.820621 v -0.307991 h 0.448551 v -3.255612 h -0.448551 v -0.307992 h 0.820621 z"
         style="font-size:4.23333px;line-height:1.25;font-family:arial;-inkscape-font-specification:arial;fill:#ffffff;fill-opacity:1;stroke-width:0.0407766"
         id="path33124" />
    </g>
    <g
       id="g34816"
       transform="matrix(6.4885935,0,0,6.4885935,-215.97863,-225.62455)"
       style="stroke-width:0.154116">
      <path
         d="m 18.778571,47.404259 v -2.195213 h 0.334863 v 0.332796 q 0.128157,-0.233578 0.235644,-0.307992 0.109554,-0.07441 0.239779,-0.07441 0.188102,0 0.382405,0.11989 l -0.128158,0.345198 q -0.136425,-0.08062 -0.272851,-0.08062 -0.121956,0 -0.219108,0.07441 -0.09715,0.07235 -0.138493,0.202571 -0.06201,0.198438 -0.06201,0.434082 v 1.149283 z"
         style="font-size:4.23333px;line-height:1.25;font-family:arial;-inkscape-font-specification:arial;fill:#000080;stroke-width:0.0407766"
         id="path33126" />
      <path
         d="m 20.188304,47.404259 v -2.195213 h 0.334863 v 0.332796 q 0.128157,-0.233578 0.235644,-0.307992 0.109554,-0.07441 0.239778,-0.07441 0.188102,0 0.382406,0.11989 l -0.128158,0.345198 q -0.136425,-0.08062 -0.272851,-0.08062 -0.121956,0 -0.219108,0.07441 -0.09715,0.07235 -0.138493,0.202571 -0.06201,0.198438 -0.06201,0.434082 v 1.149283 z"
         style="font-size:4.23333px;line-height:1.25;font-family:arial;-inkscape-font-specification:arial;fill:#000080;stroke-width:0.0407766"
         id="path33128" />
      <path
         d="m 23.034638,47.133474 q -0.206705,0.1757 -0.398942,0.248047 -0.190169,0.07235 -0.409277,0.07235 -0.361734,0 -0.556038,-0.1757 -0.194303,-0.177766 -0.194303,-0.452685 0,-0.16123 0.07235,-0.293522 0.07441,-0.134358 0.192236,-0.214973 0.11989,-0.08062 0.268718,-0.121957 0.109554,-0.02894 0.330728,-0.05581 0.450619,-0.05374 0.663525,-0.128158 0.0021,-0.07648 0.0021,-0.09715 0,-0.227376 -0.105419,-0.320394 -0.142627,-0.12609 -0.423747,-0.12609 -0.262516,0 -0.388606,0.09302 -0.124024,0.09095 -0.183968,0.324528 l -0.363802,-0.04961 q 0.04961,-0.233578 0.163297,-0.376205 0.113688,-0.144693 0.328662,-0.221174 0.214974,-0.07855 0.498161,-0.07855 0.281119,0 0.456819,0.06615 0.1757,0.06615 0.258382,0.167432 0.08268,0.09922 0.115755,0.25218 0.0186,0.09509 0.0186,0.343132 v 0.496093 q 0,0.518831 0.02274,0.657324 0.02481,0.136425 0.09509,0.262516 h -0.388647 q -0.05788,-0.115755 -0.07441,-0.270785 z m -0.03101,-0.830956 q -0.202571,0.08268 -0.607714,0.14056 -0.229443,0.03307 -0.324528,0.07441 -0.09508,0.04134 -0.146761,0.121956 -0.05168,0.07855 -0.05168,0.1757 0,0.148828 0.111621,0.248047 0.113688,0.09922 0.330729,0.09922 0.214974,0 0.382405,-0.09302 0.167432,-0.09508 0.24598,-0.258382 0.05994,-0.126091 0.05994,-0.37207 z"
         style="font-size:4.23333px;line-height:1.25;font-family:arial;-inkscape-font-specification:arial;fill:#000080;stroke-width:0.0407766"
         id="path33130" />
      <path
         d="m 23.940009,48.249684 -0.04134,-0.349332 q 0.121956,0.03307 0.212907,0.03307 0.124023,0 0.198437,-0.04134 0.07441,-0.04134 0.121956,-0.115755 0.03514,-0.05581 0.113688,-0.276986 0.01034,-0.03101 0.03307,-0.09095 l -0.833023,-2.199347 h 0.401009 l 0.456819,1.271239 q 0.08888,0.241845 0.159163,0.508496 0.06408,-0.256315 0.152962,-0.500228 l 0.469222,-1.279507 h 0.37207 l -0.835091,2.23242 q -0.134358,0.361734 -0.208772,0.49816 -0.09922,0.183968 -0.227376,0.268717 -0.128158,0.08682 -0.305925,0.08682 -0.107486,0 -0.239778,-0.04548 z"
         style="font-size:4.23333px;line-height:1.25;font-family:arial;-inkscape-font-specification:arial;fill:#000080;stroke-width:0.0407766"
         id="path33132" />
    </g>
  </g>
</svg>
